<svg width="131" height="64" viewBox="0 0 131 64" fill="none" xmlns="http://www.w3.org/2000/svg">
<path d="M89.8561 52.886L113.171 49.2796L113.019 48.2637L89.8561 51.8701V52.886Z" fill="#D52A3F"/>
<path d="M48.4073 58.3212L23.1622 62.2832L23.3146 63.2991L48.4073 59.3879V58.3212Z" fill="#D52A3F"/>
<path d="M57.1444 50.3462L58.719 50.0922C58.7698 50.0922 58.8206 50.0922 58.8714 50.143C58.9222 50.1938 58.9222 50.2446 58.9222 50.2954V60.5052L61.7667 60.048C61.9191 60.048 62.0207 60.0988 62.0207 60.2512V61.8766C62.0207 62.029 61.9191 62.1306 61.7667 62.1306L57.0936 62.8417C57.0428 62.8417 56.992 62.8417 56.9412 62.791C56.8904 62.7402 56.8396 62.6894 56.8396 62.6386V50.651C56.8396 50.6002 56.8904 50.5494 56.9412 50.4478C57.0428 50.397 57.0936 50.397 57.1444 50.3462Z" fill="#D52A3F"/>
<path d="M66.4396 61.4702L64.8649 61.7242C64.8141 61.7242 64.7125 61.7242 64.7125 61.6734C64.6617 61.6226 64.6617 61.5718 64.6617 61.521V52.8859C64.6617 52.3779 64.7633 51.87 64.9665 51.4128C65.1697 50.9556 65.4237 50.4985 65.7284 50.1429C66.0332 49.7874 66.4396 49.4318 66.8967 49.1778C67.3539 48.9239 67.811 48.7207 68.319 48.6699C68.8269 48.5683 69.2841 48.6191 69.7412 48.7207C70.1984 48.8223 70.554 49.0254 70.9095 49.3302C71.2143 49.5842 71.4683 49.9398 71.6714 50.3461C71.8746 50.7525 71.9762 51.2096 71.9762 51.7176V60.3527C71.9762 60.4035 71.9762 60.4543 71.9254 60.5559C71.8746 60.6067 71.8238 60.6575 71.773 60.6575L70.1984 60.9115C70.1476 60.9115 70.0968 60.9115 70.046 60.8607C69.9952 60.8099 69.9952 60.7591 69.9952 60.7083V56.7463L66.8967 57.2542V61.2162C66.8967 61.267 66.8967 61.3178 66.8459 61.4194C66.5412 61.4194 66.4904 61.4702 66.4396 61.4702ZM69.792 54.6637V52.0223C69.792 51.5652 69.6396 51.2604 69.3349 51.0064C69.0301 50.7525 68.6745 50.6509 68.2174 50.7017C67.7602 50.7525 67.4047 50.9556 67.0999 51.3112C66.7951 51.6668 66.6427 52.0731 66.6427 52.4795V55.1208L69.792 54.6637Z" fill="#D52A3F"/>
<path d="M77.7159 47.146C78.1223 47.0952 78.5286 47.0952 78.935 47.1968C79.2906 47.2984 79.6461 47.4507 79.9001 47.7047C80.2049 47.9587 80.4081 48.2127 80.5604 48.619C80.7128 48.9746 80.8144 49.3809 80.8144 49.7873C80.8144 50.2953 80.7128 50.8032 80.4588 51.2604C80.8144 51.362 81.17 51.5143 81.424 51.7683C81.7287 51.9715 81.9827 52.2255 82.1859 52.5302C82.3891 52.835 82.5414 53.1398 82.6938 53.5461C82.7954 53.9017 82.8462 54.3081 82.8462 54.7144C82.8462 55.2732 82.7446 55.8319 82.5414 56.3906C82.3383 56.9494 82.0335 57.4065 81.6779 57.8637C81.3224 58.3209 80.8652 58.6764 80.3573 58.9812C79.8493 59.286 79.3414 59.4891 78.7318 59.5907L74.8206 60.2003C74.7698 60.2003 74.719 60.2003 74.6682 60.1495C74.6174 60.0987 74.6174 60.0479 74.6174 59.9971V47.8571C74.6174 47.7047 74.6682 47.6031 74.8206 47.6031L77.7159 47.146ZM76.7 51.5143L77.7159 51.362C78.0207 51.3112 78.2747 51.1588 78.4778 50.9556C78.681 50.7016 78.7826 50.4476 78.7826 50.1429C78.7826 49.8381 78.681 49.6349 78.4778 49.4317C78.2747 49.2794 78.0207 49.1778 77.7159 49.2286L76.7 49.381V51.5143ZM78.7826 57.4573C79.0366 57.4065 79.3414 57.305 79.5953 57.1526C79.8493 57.0002 80.0525 56.797 80.2557 56.5938C80.4588 56.3906 80.6112 56.1367 80.7128 55.8319C80.8144 55.5779 80.8652 55.2732 80.8652 55.0192C80.8652 54.7144 80.8144 54.4604 80.7128 54.2065C80.6112 53.9525 80.4588 53.8001 80.2557 53.5969C80.0525 53.4445 79.8493 53.343 79.5953 53.2414C79.3414 53.1906 79.0874 53.1398 78.7826 53.1906L76.7 53.4953V55.5779V57.6605L78.7826 57.4573Z" fill="#D52A3F"/>
<path d="M11.4289 44.5556L8.43195 45.0128L0 11.8945L2.9969 11.4374L9.85421 38.6126L16.7623 9.25317L19.7592 8.79602L11.4289 44.5556Z" fill="#D52A3F"/>
<path d="M24.7877 42.4731C21.0797 43.0318 18.032 40.4413 18.032 36.784C18.032 33.0252 21.0289 29.5712 24.7877 28.9616C28.4449 28.4029 31.4926 30.8918 31.4926 34.7015C31.4926 34.8538 31.4926 35.1078 31.4418 35.2602L20.9273 36.8856C21.1813 38.7651 22.8575 39.9333 24.7369 39.6286C25.956 39.4254 27.0227 38.765 27.7338 37.8507L30.172 38.8666C28.9529 40.6953 26.9719 42.1175 24.7877 42.4731ZM24.7369 31.8061C23.2131 32.0601 21.8416 33.2792 21.2321 34.7523L28.2926 33.6348C27.6322 32.3649 26.3116 31.5522 24.7369 31.8061Z" fill="#D52A3F"/>
<path d="M39.6712 26.4218C40.8902 26.2186 41.9569 26.4218 42.922 26.8789L41.9061 29.4695C41.9061 29.4695 41.195 28.8599 39.6712 29.1139C37.0298 29.5203 36.5727 32.3648 36.4711 33.8886V40.6443L33.6774 41.1015V27.5901L36.4711 27.1329V27.9964C37.233 27.2345 38.2997 26.625 39.6712 26.4218Z" fill="#D52A3F"/>
<path d="M56.1284 40.6444C56.1284 43.6413 54.8078 47.4001 50.287 48.0605C46.5282 48.67 44.2424 46.0795 44.2424 42.3206L47.0362 41.8635C47.0362 44.708 48.6616 45.4699 50.287 45.2159C52.2172 44.9112 53.3347 43.1334 53.3347 40.8476V38.0031L51.8617 38.2063C48.306 38.765 45.4615 36.276 45.4615 32.3648V25.7615L48.306 25.3043V31.9585C48.306 34.0919 49.8807 35.3617 51.8617 35.057L53.3347 34.8538V24.5424L56.1284 24.0853V40.6444Z" fill="#D52A3F"/>
<path d="M59.2773 14.485C59.2773 6.91658 65.7791 1.43073 71.3665 0.567219C77.6651 -0.397884 83.2525 4.07207 83.2525 10.6754C83.2525 15.7549 80.2048 20.1741 76.3444 22.5614C77.9191 23.5265 78.935 25.2535 78.935 27.3869C78.935 31.095 75.9889 34.4982 72.2808 35.1078L69.2839 35.5649V13.3675L72.2808 12.9104V21.19C76.4968 20.2756 80.2556 16.3136 80.2556 11.1834C80.2556 6.40863 76.0397 2.85299 71.3665 3.61491C63.3409 4.83399 59.9377 14.3326 64.2045 19.209L61.7155 21.2915C59.8869 19.2597 59.2773 16.72 59.2773 14.485ZM75.8873 27.7425C75.8873 25.7615 74.2618 24.3392 72.1793 24.644V32.0093C74.2618 31.7045 75.8873 29.7743 75.8873 27.7425Z" fill="#D52A3F"/>
<path d="M88.637 32.5173C84.9289 33.0761 81.8812 30.4855 81.8812 26.8283C81.8812 23.0695 84.8781 19.6154 88.637 19.0059C92.345 18.4471 95.3419 20.9361 95.3419 24.6949C95.3419 24.8473 95.3419 25.1013 95.2911 25.2536L84.7765 26.8791C85.0305 28.7585 86.7067 29.9268 88.5862 29.622C89.8052 29.4188 90.8719 28.7585 91.5831 27.8442L94.0212 28.8601C92.8021 30.7395 90.8719 32.1617 88.637 32.5173ZM88.5862 21.8504C87.0623 22.1044 85.6908 23.3234 85.0813 24.7965L92.1418 23.679C91.5323 22.4091 90.2116 21.5964 88.5862 21.8504Z" fill="#D52A3F"/>
<path d="M103.571 16.4659C104.79 16.2627 105.856 16.4659 106.822 16.9231L105.806 19.5136C105.806 19.5136 105.095 18.9041 103.571 19.158C100.929 19.5644 100.472 22.4089 100.371 23.9328V30.6885L97.5769 31.1456V17.6342L100.371 17.177V18.0405C101.133 17.2786 102.199 16.6691 103.571 16.4659Z" fill="#D52A3F"/>
<path d="M114.543 14.7389C115.762 14.5357 116.828 14.7389 117.793 15.196L116.777 17.7865C116.777 17.7865 116.066 17.177 114.543 17.431C111.901 17.8373 111.444 20.6819 111.342 22.2057V28.9614L108.549 29.4186V15.9071L111.342 15.45V16.3135C112.104 15.6024 113.171 14.9928 114.543 14.7389Z" fill="#D52A3F"/>
<path d="M131 28.9614C131 31.9583 129.679 35.7171 125.159 36.3774C121.4 36.987 119.114 34.3964 119.114 30.6376L121.908 30.1804C121.908 33.025 123.533 33.7869 125.159 33.5329C127.089 33.2281 128.206 31.4503 128.206 29.1645V26.2692L126.733 26.4724C123.178 27.0312 120.333 24.5422 120.333 20.631V14.0785L123.178 13.6213V20.2754C123.178 22.4088 124.752 23.6787 126.733 23.3739L128.206 23.1707V12.8594L131 12.4022V28.9614Z" fill="#D52A3F"/>
</svg>
